<svg width="134" height="48" viewBox="0 0 134 48" fill="none" xmlns="http://www.w3.org/2000/svg">
<path d="M18.4508 33.0641C19.4193 32.9321 19.6389 32.7136 19.815 31.7941C19.8596 31.4004 19.8596 28.9481 19.815 28.5544C19.727 28.0297 19.5954 27.8101 19.3748 27.5916C18.9791 27.2855 19.815 27.2855 12.5558 27.1979C6.92499 27.1979 6.79346 27.2855 6.13363 26.6722C5.38575 25.8836 5.64881 25.6651 5.64881 13.2318C5.64881 2.94464 5.60533 1.2366 5.56076 1.0181C5.42923 0.536731 5.2977 0.361493 4.98898 0.229523C4.63787 0.0542841 4.37372 -0.0322533 2.56925 0.0110155C1.07349 0.0110155 1.07349 0.0542843 0.853911 0.141904C0.413663 0.317142 0.194082 0.536732 0.0625516 1.41184C0.0179834 1.84994 -0.025498 6.27093 0.0179833 14.545C0.0179833 26.8474 0.0625516 31.5756 0.149514 32.2322C0.325614 32.5827 0.634331 32.9321 1.11806 33.0641C2.39315 33.1517 17.4398 33.1949 18.4508 33.0641Z" fill="black"/>
<path d="M39.3466 0.624512L28.3915 0.667781L28.1284 0.7554C27.7762 0.886288 27.6001 1.06153 27.5121 1.412L27.3805 1.67486L27.336 16.078C27.2925 24.0892 27.2925 31.1377 27.336 31.5314C27.3805 32.188 27.424 32.4076 27.4675 32.4952C27.6436 32.889 27.8197 33.0642 28.4795 33.1951C28.7437 33.2395 31.383 33.2827 39.8303 33.2395C49.069 33.2395 50.8289 33.1951 51.0485 33.1951V33.1518C51.3561 33.0642 51.6203 32.757 51.7529 32.4076L51.8844 32.0571L51.8398 17.0407C51.8398 8.46049 51.7964 2.46235 51.7529 1.67486C51.6203 1.01826 51.4007 0.798669 50.7408 0.667781C50.4321 0.667781 48.4092 0.624512 44.3176 0.624512C42.9533 0.624512 41.2815 0.624512 39.3466 0.624512ZM45.3731 6.53395C45.6372 6.70919 45.8133 6.84007 46.0329 7.14728C46.5166 7.89151 46.2971 7.97913 46.2971 16.8655C46.2971 25.3148 46.4732 25.7529 46.0775 26.4971C45.9449 26.8032 45.8133 26.9785 45.5492 27.198C44.8894 27.6351 44.5372 27.4598 39.6542 27.4598C34.1995 27.5042 33.9788 27.5918 33.2755 26.8908C32.9668 26.5847 32.9233 26.2342 32.8787 25.9281C32.7472 25.3148 32.7907 22.8192 32.7907 16.6902C32.7907 8.24198 32.6592 8.15436 33.0548 7.32252C33.1875 7.05966 33.4516 6.70919 33.7592 6.53395C34.3745 6.18347 34.5071 6.31544 39.5662 6.31544C44.5817 6.31544 44.7578 6.18347 45.3731 6.53395Z" fill="black"/>
<path d="M60.4165 0.405085C59.8012 0.580324 59.6251 0.712294 59.4056 1.28128C59.361 1.63067 59.3175 3.86334 59.361 16.2534C59.361 24.7027 59.4056 31.2255 59.4491 31.7512C59.4925 32.451 59.6251 32.6263 59.8447 32.8015C60.1534 33.0644 59.9773 33.0644 62.1329 33.152C63.1884 33.1953 64.1559 33.2396 64.42 33.2396C64.7288 33.2396 68.8638 33.2829 73.6153 33.2396H82.8539L83.117 33.152C83.3812 33.0644 83.7334 32.7139 83.7779 32.451C83.7779 32.451 83.8649 31.6192 83.9529 24.4398C83.9529 20.1497 83.9975 16.209 83.9529 15.9029C83.9095 14.8958 83.8214 14.6773 83.6899 14.5021C83.4257 14.1083 83.2931 13.9331 81.7093 13.8887C80.6538 13.8011 79.9505 13.7135 79.4222 13.0136C78.9385 12.357 79.1145 12.1374 79.07 6.79697C79.07 1.28128 79.0265 1.32455 78.9385 1.14931C78.8504 0.930801 78.5417 0.580324 78.2786 0.449436C78.146 0.405085 76.9144 0.361816 69.6998 0.361816C67.8083 0.361816 66.3561 0.361816 65.1679 0.361816C61.3405 0.361816 60.5491 0.405085 60.4165 0.405085ZM69.8313 6.27125C73.4826 6.27125 74.0544 6.18363 74.5827 7.23507C74.8469 7.7597 74.8023 8.11018 74.8023 10.08C74.8023 12.1374 74.8469 12.4879 74.4947 13.0136C74.3186 13.2765 74.1425 13.495 73.8794 13.6702C73.3065 14.0207 72.9989 13.8887 70.1835 13.8887C68.4236 13.8887 66.9278 13.8887 66.5756 13.8455C65.9604 13.7578 65.4321 13.4074 65.1244 12.7951C64.8603 12.225 64.9038 11.8756 64.9483 10.0367C64.9483 7.89167 64.9483 7.14745 65.6962 6.57846L66.1365 6.27125H69.8313ZM73.175 19.7116C77.0459 19.7549 77.6188 19.6684 78.1025 20.6744C78.4102 21.2433 78.3221 21.6382 78.3667 23.5636C78.3667 25.8407 78.3667 26.6725 77.5307 27.1982C76.9144 27.592 76.7383 27.46 71.6793 27.46C66.7083 27.5043 66.4876 27.592 65.8723 27.2858C65.5636 27.1106 65.256 26.8034 65.0799 26.454C64.8603 25.9283 64.9038 25.5778 64.9038 23.608C64.9038 21.6382 64.8603 21.2877 65.1244 20.7187C65.5636 19.7549 66.3115 19.6684 67.8953 19.6684C68.0714 19.6684 68.3801 19.6684 68.7758 19.6684C69.8759 19.6684 71.5912 19.6684 73.175 19.7116Z" fill="black"/>
<path d="M103.441 0.624512L92.4855 0.667781L92.2224 0.7554C91.8702 0.886288 91.6941 1.06153 91.606 1.412L91.4745 1.67486L91.4299 16.078C91.3865 24.0892 91.3865 31.1377 91.4299 31.5314C91.4745 32.188 91.518 32.4076 91.5615 32.4952C91.7376 32.889 91.9137 33.0642 92.5735 33.1951C92.8377 33.2395 95.477 33.2827 103.924 33.2395C113.163 33.2395 114.923 33.1951 115.142 33.1951V33.1518C115.45 33.0642 115.714 32.757 115.847 32.4076L115.978 32.0571L115.934 17.0407C115.934 8.46049 115.89 2.46235 115.847 1.67486C115.714 1.01826 115.495 0.798669 114.835 0.667781C114.526 0.667781 112.503 0.624512 108.412 0.624512C107.047 0.624512 105.375 0.624512 103.441 0.624512ZM109.467 6.53395C109.731 6.70919 109.907 6.84007 110.127 7.14728C110.611 7.89151 110.391 7.97913 110.391 16.8655C110.391 25.3148 110.567 25.7529 110.171 26.4971C110.039 26.8032 109.907 26.9785 109.643 27.198C108.983 27.6351 108.631 27.4598 103.748 27.4598C98.2935 27.5042 98.0728 27.5918 97.3695 26.8908C97.0608 26.5847 97.0173 26.2342 96.9727 25.9281C96.8412 25.3148 96.8847 22.8192 96.8847 16.6902C96.8847 8.24198 96.7531 8.15436 97.1488 7.32252C97.2814 7.05966 97.5456 6.70919 97.8532 6.53395C98.4685 6.18347 98.6011 6.31544 103.66 6.31544C108.676 6.31544 108.852 6.18347 109.467 6.53395Z" fill="black"/>
<path d="M63.9796 47.9909C64.0817 47.9681 64.1372 47.9292 64.1676 47.8199C64.1839 47.7572 64.1915 47.7572 64.1839 47.4457C64.1763 47.0487 64.1763 47.0876 64.1133 47.0325C64.035 46.9546 64.1676 46.9546 62.8686 46.9546C61.9359 46.947 61.9055 46.9708 61.8033 46.9081C61.7098 46.8529 61.662 46.7361 61.6544 46.6279C61.6468 46.55 61.6468 45.8642 61.6468 45.0226C61.6544 43.5342 61.6305 43.5179 61.6935 43.386C61.7881 43.1913 61.8425 43.2151 62.8371 43.2151C63.4632 43.2151 63.9013 43.2151 63.9491 43.2064C64.097 43.1837 64.1285 43.1599 64.1763 43.0593L64.1915 43.0117L64.1991 42.7002C64.1991 42.3811 64.1991 42.3735 64.1839 42.3183C64.16 42.248 64.1209 42.2015 64.0665 42.1788C64.0426 42.1626 64.0187 42.155 63.91 42.1474C63.8469 42.1474 63.1654 42.1398 62.3197 42.1474L60.8554 42.155L60.8087 42.1788C60.7152 42.2177 60.6837 42.2567 60.6598 42.3735C60.6522 42.4589 60.6522 43.3232 60.6598 45.1232C60.6674 47.3126 60.6761 47.7648 60.6837 47.8351C60.7152 47.9292 60.7543 47.9681 60.9109 47.9909C61.0674 47.9984 63.7687 47.9984 63.9796 47.9909Z" fill="black"/>
<path d="M73.9342 42.1787L71.984 42.1863L71.9373 42.2014C71.8743 42.2252 71.8427 42.2566 71.8275 42.3183L71.8036 42.3648L71.796 44.9284C71.7884 46.3542 71.7884 47.6089 71.796 47.6793C71.8036 47.7961 71.8123 47.835 71.8199 47.8502C71.8514 47.9205 71.883 47.9519 72.0004 47.9756C72.0471 47.9832 72.5167 47.9908 74.0201 47.9832C75.6647 47.9832 75.9778 47.9756 76.0169 47.9756V47.9681C76.0713 47.9519 76.118 47.8978 76.1419 47.835L76.1659 47.7723L76.1572 45.1004C76.1572 43.573 76.1496 42.5054 76.1419 42.3648C76.118 42.2479 76.0789 42.209 75.9615 42.1863C75.9071 42.1863 75.5473 42.1787 74.819 42.1787C74.5755 42.1787 74.2788 42.1787 73.9342 42.1787ZM75.0071 43.2301C75.0538 43.2615 75.0853 43.2842 75.1245 43.3394C75.2104 43.4714 75.1712 43.4876 75.1712 45.0691C75.1712 46.5727 75.2027 46.6505 75.1321 46.7836C75.1082 46.8377 75.0853 46.869 75.0375 46.908C74.9201 46.9859 74.8582 46.9545 73.9885 46.9545C73.0178 46.9621 72.9787 46.9783 72.8537 46.8528C72.7982 46.7987 72.7906 46.736 72.783 46.6819C72.7591 46.5727 72.7667 46.1292 72.7667 45.0377C72.7667 43.5341 72.7439 43.5179 72.8145 43.3708C72.8374 43.3232 72.8852 43.2615 72.9395 43.2301C73.0493 43.1674 73.0722 43.1912 73.9733 43.1912C74.8658 43.1912 74.8973 43.1674 75.0071 43.2301Z" fill="black"/>
<path d="M83.8719 42.1787C83.8251 42.2014 83.786 42.2479 83.7697 42.3496C83.7621 42.3648 83.7545 42.5054 83.7621 42.7077C83.7621 43.0041 83.7697 43.0041 83.7784 43.0354C83.8088 43.1057 83.8251 43.1209 83.8958 43.1598L83.9501 43.1836L85.148 43.1988C85.7829 43.1988 86.3231 43.2063 86.3851 43.215C86.4481 43.2226 86.6981 43.2691 86.6286 43.4952C86.597 43.6271 86.5025 43.6974 86.2448 43.9473C86.1274 44.0641 86.0253 44.1734 86.0013 44.1961C85.9785 44.2199 85.8448 44.3519 85.6731 44.5239C85.5241 44.6721 85.3915 44.804 85.3676 44.8278C85.3437 44.8506 85.0861 45.108 84.7491 45.4347C83.8251 46.2535 83.8251 46.2687 83.786 46.3931C83.7697 46.432 83.7621 46.4483 83.7621 47.0324C83.7545 47.3991 83.7621 47.6792 83.7697 47.7258C83.7936 47.9205 83.8327 47.9681 84.036 47.9908C84.1925 47.9984 87.7167 48.007 87.9906 47.9908C88.0765 47.9681 88.1395 47.9205 88.1624 47.8815C88.1863 47.8274 88.2102 47.742 88.2102 47.4607C88.2102 47.0324 88.1711 47.001 88.0689 46.9545C88.0221 46.9231 88.0537 46.9156 86.5807 46.9156C85.3828 46.9156 85.0774 47.001 85.0774 46.697V46.6895C85.0774 46.5575 85.1556 46.4948 85.2426 46.4093C85.3133 46.339 85.6959 45.9572 85.9155 45.7386C85.9622 45.6921 86.2285 45.4271 86.5112 45.1545C86.7851 44.8819 87.1993 44.4763 87.4428 44.2589C88.1319 43.6585 88.1395 43.6271 88.1863 43.4876C88.1939 43.4486 88.2015 43.3859 88.2015 42.8948C88.2015 42.3572 88.1939 42.3572 88.1787 42.3031C88.1472 42.1938 88.1004 42.1473 87.92 42.1235C87.8493 42.1235 86.9025 42.1235 85.9003 42.1235C83.8088 42.1311 83.9425 42.1398 83.8719 42.1787Z" fill="black"/>
<path d="M97.138 47.9832C97.8892 47.9832 97.8663 47.9756 97.8978 47.968C97.937 47.9518 97.9989 47.8891 98.0152 47.8588C98.0381 47.8036 98.0544 47.6716 98.0544 47.3904C98.0457 47.0951 98.0305 47.0951 97.9913 47.0399C97.9446 46.9782 97.9207 46.9545 97.7326 46.9317C97.6152 46.9155 97.5054 46.8766 97.4435 46.7749C97.3489 46.6429 97.388 46.565 97.388 45.1004C97.388 43.6509 97.3728 43.5492 97.4272 43.4248C97.4826 43.2842 97.6152 43.2225 97.7489 43.2063C97.9674 43.1836 98.0152 43.1371 98.0544 43.0116C98.062 42.9499 98.0696 42.3885 98.0544 42.3182C98.0305 42.2089 97.9761 42.1549 97.8424 42.1235C97.7174 42.1159 96.1586 42.1083 95.9945 42.1235C95.9086 42.1473 95.8531 42.1938 95.814 42.2868C95.8064 42.3182 95.8064 42.3496 95.8064 42.646C95.8064 43.0354 95.8064 43.0278 95.8531 43.0895C95.8934 43.1446 95.9325 43.176 96.1119 43.1987C96.2456 43.2149 96.3782 43.2452 96.4412 43.3707C96.5119 43.5027 96.488 43.5968 96.4956 45.0301C96.4956 46.0426 96.5119 46.565 96.488 46.6667C96.4564 46.7597 96.4021 46.8614 96.2923 46.9004C96.2369 46.9231 96.1749 46.9317 96.0966 46.9393C95.9477 46.962 95.9553 46.962 95.9086 46.9934C95.8618 47.0248 95.8227 47.0561 95.814 47.3752C95.7988 47.7495 95.8455 47.8588 95.901 47.9129C95.9401 47.9518 95.9553 47.968 96.1901 47.9832C96.2999 47.9832 96.7304 47.9907 97.138 47.9832Z" fill="black"/>
<path d="M106.175 47.991C106.411 47.9834 106.45 47.9759 106.473 47.9683C106.529 47.9521 106.583 47.898 106.607 47.8504L106.622 47.8039L106.63 46.0039C106.63 44.695 106.622 44.1888 106.654 44.0719C106.661 44.0254 106.669 43.9865 106.717 43.9389C106.803 43.8458 106.943 43.9313 106.967 43.9551C107.03 44.033 107.099 44.2201 107.155 44.3597C107.343 44.8583 108.423 47.6329 108.47 47.7422C108.541 47.9055 108.58 47.9369 108.673 47.9683C108.697 47.9834 108.744 47.9834 109.238 47.9834C109.802 47.9834 109.825 47.9834 109.864 47.9683C109.903 47.9521 109.973 47.8893 109.997 47.8428C110.005 47.7963 110.013 47.4382 110.013 45.1396C110.013 43.371 110.013 42.4667 110.005 42.3736C109.981 42.233 109.95 42.2016 109.809 42.1703C109.746 42.1551 109.347 42.1551 109.261 42.1627C109.152 42.1865 109.096 42.233 109.065 42.3033C109.057 42.3423 109.049 42.6386 109.049 44.1574C109.042 45.9812 109.12 46.1683 108.908 46.2613C108.697 46.3468 108.627 46.059 108.587 45.9574C108.541 45.8557 108.22 45.0541 107.867 44.1422C107.522 43.2455 107.218 42.4591 107.186 42.4039C107.116 42.2406 107.06 42.2016 106.92 42.1789C106.834 42.1703 105.988 42.1703 105.894 42.1789C105.754 42.1941 105.706 42.2406 105.683 42.326C105.674 42.326 105.667 42.4429 105.667 45.0931V47.8039L105.683 47.8504C105.698 47.8893 105.761 47.9521 105.784 47.9596C105.793 47.9683 105.832 47.9759 105.862 47.9834C105.879 47.9834 106.035 47.991 106.175 47.991Z" fill="black"/>
<path d="M118.134 47.9835C118.408 47.9835 118.416 47.9759 118.44 47.9683C118.526 47.937 118.557 47.898 118.58 47.8039C118.589 47.7498 118.589 47.4307 118.596 46.8304C118.604 45.926 118.58 45.8871 118.643 45.7627C118.675 45.7 118.721 45.661 118.768 45.6307C118.878 45.5756 118.909 45.5918 119.787 45.5918C120.405 45.5994 120.679 45.5918 120.773 45.6145C120.882 45.6534 120.968 45.7627 120.985 45.8871C120.992 45.9574 120.992 46.3706 121 46.9007C121.007 47.8277 121.016 47.8277 121.024 47.8504C121.039 47.8894 121.078 47.937 121.11 47.9521C121.156 47.9759 121.227 47.991 121.54 47.991C121.838 47.9835 121.823 47.9835 121.845 47.9683C121.916 47.937 121.955 47.8894 121.979 47.765C121.987 47.6719 121.994 46.6508 121.994 45.0066C121.994 42.7003 121.994 42.3423 121.987 42.2958C121.948 42.2092 121.908 42.1703 121.838 42.1476C121.783 42.14 121.305 42.1238 121.219 42.1314C121.094 42.1552 121.039 42.2017 121.016 42.2796L120.992 42.3261V43.2693C120.985 44.1812 121 44.2353 120.945 44.3597C120.86 44.5631 120.789 44.5317 119.809 44.5393C118.909 44.5393 118.885 44.5631 118.777 44.5003C118.721 44.469 118.675 44.4224 118.643 44.3597C118.589 44.2353 118.604 44.1888 118.596 43.2693V42.3261L118.572 42.2796C118.557 42.233 118.502 42.179 118.455 42.1627C118.423 42.1476 118.401 42.1476 118.095 42.1476C117.751 42.1476 117.782 42.1476 117.751 42.1552C117.665 42.2017 117.641 42.2179 117.617 42.3261C117.602 42.6387 117.602 47.5162 117.617 47.765C117.641 47.9132 117.672 47.9445 117.805 47.9759C117.829 47.9835 117.915 47.991 118.134 47.9835Z" fill="black"/>
<path d="M129.834 42.0697C129.717 42.0848 129.646 42.14 129.607 42.2255L129.591 42.272V43.9476C129.583 44.8822 129.591 46.137 129.591 46.7287L129.607 47.7812L129.622 47.8353C129.662 47.9207 129.717 47.9683 129.834 47.9835C129.928 47.9986 130.17 47.9986 130.336 47.9835C130.515 47.9683 130.562 47.9207 130.593 47.8115C130.609 47.7649 130.617 47.7498 130.625 47.196C130.625 46.8617 130.617 46.6356 130.649 46.5415C130.688 46.402 130.805 46.3544 130.906 46.3392C130.977 46.3241 131.377 46.3241 131.862 46.3241C132.747 46.3154 132.817 46.2927 132.927 46.4323C133.02 46.5577 133.005 46.6583 133.005 47.1494C133.005 47.4145 133.013 47.6946 133.013 47.726C133.028 47.8353 133.076 47.898 133.091 47.9056C133.162 47.9521 133.177 47.9597 133.421 47.9683C133.922 47.9835 133.952 47.9207 133.984 47.7498C133.991 47.6481 133.991 46.5729 134 44.9752C134 42.63 133.991 42.2871 133.984 42.2482C133.984 42.2406 133.952 42.1865 133.937 42.1703C133.89 42.1238 133.851 42.0924 133.678 42.0848C133.482 42.0773 131.47 42.061 130.468 42.061C130.124 42.061 129.889 42.0697 129.834 42.0697ZM132.825 43.1839C133.013 43.2845 132.989 43.4099 132.998 44.2039C132.998 44.9287 133.013 44.9676 132.959 45.0844C132.935 45.1472 132.888 45.1937 132.832 45.2251C132.707 45.2954 132.629 45.2792 131.658 45.264C130.969 45.2564 130.906 45.2716 130.805 45.2251C130.695 45.171 130.649 45.0542 130.632 44.9287C130.609 44.734 130.601 43.5105 130.664 43.3548C130.703 43.2379 130.805 43.1839 130.906 43.1676C130.977 43.1525 131.368 43.1525 131.854 43.1525C132.057 43.1525 132.214 43.1525 132.34 43.1525C132.692 43.1525 132.747 43.1449 132.825 43.1839Z" fill="black"/>
<path d="M29.1006 38.7632H50.2064H29.1006Z" fill="black"/>
<path d="M29.1006 38.7632H50.2064" stroke="black" stroke-width="3" stroke-linecap="round"/>
</svg>
