<svg width="141" height="51" viewBox="0 0 141 51" fill="none" xmlns="http://www.w3.org/2000/svg">
<path d="M19.2835 34.5562C20.2957 34.4183 20.5252 34.1899 20.7093 33.229C20.7558 32.8175 20.7558 30.2545 20.7093 29.843C20.6172 29.2947 20.4798 29.0652 20.2491 28.8368C19.8356 28.5169 20.7093 28.5169 13.1225 28.4253C7.23751 28.4253 7.10004 28.5169 6.41044 27.8759C5.62881 27.0517 5.90374 26.8234 5.90374 13.8289C5.90374 3.07753 5.8583 1.29241 5.81172 1.06404C5.67425 0.560954 5.53678 0.377807 5.21413 0.239881C4.84718 0.056734 4.57111 -0.0337089 2.6852 0.0115126C1.12194 0.0115126 1.12194 0.0567342 0.892448 0.148308C0.432332 0.331455 0.202841 0.560954 0.0653746 1.47556C0.018795 1.93343 -0.0266487 6.55394 0.0187949 15.2014C0.0187949 28.059 0.0653746 33.0006 0.156262 33.6869C0.340308 34.0531 0.662958 34.4183 1.16852 34.5562C2.50115 34.6478 18.2269 34.693 19.2835 34.5562Z" fill="#DED7C2"/>
<path d="M41.1224 0.652588L29.6729 0.697809L29.3979 0.789383C29.0298 0.926178 28.8458 1.10933 28.7538 1.47562L28.6163 1.75034L28.5697 16.8035C28.5243 25.1762 28.5243 32.5428 28.5697 32.9543C28.6163 33.6406 28.6618 33.8701 28.7072 33.9616C28.8912 34.3731 29.0753 34.5563 29.7649 34.6931C30.041 34.7394 32.7994 34.7847 41.6279 34.7394C51.2836 34.7394 53.1229 34.6931 53.3524 34.6931V34.6479C53.6739 34.5563 53.95 34.2352 54.0886 33.8701L54.226 33.5038L54.1795 17.8096C54.1795 8.84221 54.134 2.57337 54.0886 1.75034C53.95 1.0641 53.7205 0.834604 53.0309 0.697809C52.7082 0.697809 50.594 0.652588 46.3177 0.652588C44.8919 0.652588 43.1446 0.652588 41.1224 0.652588ZM47.4209 6.82872C47.6969 7.01186 47.881 7.14866 48.1105 7.46973C48.616 8.24754 48.3865 8.33912 48.3865 17.6265C48.3865 26.4571 48.5706 26.915 48.1571 27.6928C48.0185 28.0127 47.881 28.1959 47.6049 28.4254C46.9153 28.8821 46.5472 28.699 41.4439 28.699C35.743 28.7453 35.5124 28.8369 34.7773 28.1043C34.4547 27.7844 34.4092 27.4181 34.3627 27.0981C34.2252 26.4571 34.2706 23.849 34.2706 17.4433C34.2706 8.61384 34.1332 8.52226 34.5467 7.65288C34.6853 7.37816 34.9614 7.01186 35.2829 6.82872C35.9259 6.46242 36.0645 6.60035 41.3519 6.60035C46.5938 6.60035 46.7778 6.46242 47.4209 6.82872Z" fill="#DED7C2"/>
<path d="M63.1432 0.423151C62.5002 0.606299 62.3161 0.744224 62.0866 1.33889C62.04 1.70405 61.9946 4.03748 62.04 16.9867C62.04 25.8173 62.0866 32.6344 62.1321 33.1839C62.1775 33.9153 62.3161 34.0985 62.5456 34.2816C62.8682 34.5564 62.6842 34.5564 64.9371 34.6479C66.0402 34.6932 67.0513 34.7395 67.3274 34.7395C67.65 34.7395 71.9717 34.7847 76.9376 34.7395H86.5932L86.8681 34.6479C87.1442 34.5564 87.5123 34.1901 87.5589 33.9153C87.5589 33.9153 87.6498 33.046 87.7418 25.5426C87.7418 21.0589 87.7884 16.9403 87.7418 16.6204C87.6964 15.5678 87.6043 15.3395 87.4669 15.1563C87.1908 14.7448 87.0522 14.5617 85.3969 14.5153C84.2938 14.4237 83.5587 14.3322 83.0066 13.6007C82.501 12.9145 82.6851 12.685 82.6385 7.1035C82.6385 1.33889 82.593 1.38411 82.501 1.20096C82.409 0.972593 82.0863 0.606298 81.8114 0.469503C81.6728 0.423151 80.3856 0.37793 72.8454 0.37793C70.8686 0.37793 69.3508 0.37793 68.109 0.37793C64.1089 0.37793 63.2818 0.423151 63.1432 0.423151ZM72.9829 6.55406C76.799 6.55406 77.3966 6.46249 77.9487 7.56137C78.2248 8.10968 78.1782 8.47598 78.1782 10.5347C78.1782 12.685 78.2248 13.0513 77.8567 13.6007C77.6726 13.8754 77.4886 14.1038 77.2137 14.2869C76.6149 14.6532 76.2934 14.5153 73.3509 14.5153C71.5116 14.5153 69.9484 14.5153 69.5803 14.4701C68.9372 14.3785 68.3851 14.0122 68.0636 13.3723C67.7875 12.7765 67.833 12.4114 67.8795 10.4895C67.8795 8.24761 67.8795 7.4698 68.6612 6.87513L69.1213 6.55406H72.9829ZM76.4775 20.601C80.5231 20.6462 81.1218 20.5558 81.6274 21.6072C81.9489 22.2018 81.8569 22.6145 81.9034 24.6268C81.9034 27.0066 81.9034 27.876 81.0298 28.4255C80.3856 28.837 80.2016 28.699 74.9142 28.699C69.7189 28.7454 69.4882 28.837 68.8452 28.517C68.5226 28.3339 68.2011 28.0128 68.017 27.6476C67.7875 27.0982 67.833 26.7319 67.833 24.6732C67.833 22.6145 67.7875 22.2482 68.0636 21.6535C68.5226 20.6462 69.3042 20.5558 70.9595 20.5558C71.1435 20.5558 71.4662 20.5558 71.8797 20.5558C73.0294 20.5558 74.8222 20.5558 76.4775 20.601Z" fill="#DED7C2"/>
<path d="M108.109 0.652588L96.6592 0.697809L96.3843 0.789383C96.0162 0.926178 95.8321 1.10933 95.7401 1.47562L95.6026 1.75034L95.5561 16.8035C95.5106 25.1762 95.5106 32.5428 95.5561 32.9543C95.6026 33.6406 95.6481 33.8701 95.6935 33.9616C95.8776 34.3731 96.0616 34.5563 96.7512 34.6931C97.0273 34.7394 99.7857 34.7847 108.614 34.7394C118.27 34.7394 120.109 34.6931 120.339 34.6931V34.6479C120.66 34.5563 120.936 34.2352 121.075 33.8701L121.212 33.5038L121.166 17.8096C121.166 8.84221 121.12 2.57337 121.075 1.75034C120.936 1.0641 120.707 0.834604 120.017 0.697809C119.695 0.697809 117.58 0.652588 113.304 0.652588C111.878 0.652588 110.131 0.652588 108.109 0.652588ZM114.407 6.82872C114.683 7.01186 114.867 7.14866 115.097 7.46973C115.602 8.24754 115.373 8.33912 115.373 17.6265C115.373 26.4571 115.557 26.915 115.143 27.6928C115.005 28.0127 114.867 28.1959 114.591 28.4254C113.902 28.8821 113.534 28.699 108.43 28.699C102.729 28.7453 102.499 28.8369 101.764 28.1043C101.441 27.7844 101.396 27.4181 101.349 27.0981C101.212 26.4571 101.257 23.849 101.257 17.4433C101.257 8.61384 101.119 8.52226 101.533 7.65288C101.672 7.37816 101.948 7.01186 102.269 6.82872C102.912 6.46242 103.051 6.60035 108.338 6.60035C113.58 6.60035 113.764 6.46242 114.407 6.82872Z" fill="#DED7C2"/>
<path d="M66.8669 50.1566C66.9737 50.1329 67.0317 50.0922 67.0635 49.978C67.0805 49.9124 67.0885 49.9124 67.0805 49.5869C67.0726 49.1719 67.0726 49.2126 67.0067 49.155C66.9249 49.0736 67.0635 49.0736 65.7059 49.0736C64.7311 49.0657 64.6993 49.0905 64.5925 49.025C64.4948 48.9673 64.4448 48.8452 64.4368 48.7322C64.4289 48.6508 64.4289 47.934 64.4289 47.0544C64.4368 45.4988 64.4119 45.4819 64.4777 45.3439C64.5766 45.1404 64.6334 45.1653 65.6729 45.1653C66.3273 45.1653 66.7851 45.1653 66.8351 45.1563C66.9896 45.1325 67.0226 45.1077 67.0726 45.0025L67.0885 44.9528L67.0964 44.6272C67.0964 44.2937 67.0964 44.2858 67.0805 44.2281C67.0555 44.1546 67.0146 44.106 66.9578 44.0823C66.9328 44.0653 66.9078 44.0574 66.7942 44.0495C66.7283 44.0495 66.016 44.0416 65.1321 44.0495L63.6018 44.0574L63.553 44.0823C63.4553 44.123 63.4223 44.1637 63.3973 44.2858C63.3894 44.3751 63.3894 45.2784 63.3973 47.1596C63.4053 49.4478 63.4144 49.9204 63.4223 49.9938C63.4553 50.0922 63.4962 50.1329 63.6598 50.1566C63.8234 50.1646 66.6465 50.1646 66.8669 50.1566Z" fill="#DED7C2"/>
<path d="M77.2707 44.0822L75.2325 44.0901L75.1837 44.1059C75.1178 44.1308 75.0848 44.1636 75.0689 44.228L75.0439 44.2766L75.036 46.956C75.028 48.446 75.028 49.7575 75.036 49.8309C75.0439 49.953 75.053 49.9937 75.061 50.0096C75.0939 50.083 75.1269 50.1158 75.2496 50.1407C75.2984 50.1486 75.7892 50.1565 77.3604 50.1486C79.0793 50.1486 79.4065 50.1407 79.4474 50.1407V50.1328C79.5042 50.1158 79.5531 50.0593 79.5781 49.9937L79.6031 49.9282L79.594 47.1357C79.594 45.5394 79.586 44.4236 79.5781 44.2766C79.5531 44.1545 79.5122 44.1138 79.3895 44.0901C79.3327 44.0901 78.9566 44.0822 78.1955 44.0822C77.941 44.0822 77.6308 44.0822 77.2707 44.0822ZM78.392 45.181C78.4409 45.2138 78.4738 45.2376 78.5147 45.2952C78.6045 45.4331 78.5636 45.4501 78.5636 47.103C78.5636 48.6744 78.5965 48.7558 78.5227 48.8949C78.4977 48.9514 78.4738 48.9842 78.4238 49.0249C78.3011 49.1063 78.2364 49.0735 77.3275 49.0735C76.313 49.0814 76.2721 49.0984 76.1414 48.9672C76.0835 48.9107 76.0755 48.8451 76.0676 48.7886C76.0426 48.6744 76.0505 48.2109 76.0505 47.0702C76.0505 45.4987 76.0267 45.4818 76.1005 45.328C76.1244 45.2783 76.1744 45.2138 76.2312 45.181C76.3459 45.1155 76.3698 45.1403 77.3116 45.1403C78.2443 45.1403 78.2773 45.1155 78.392 45.181Z" fill="#DED7C2"/>
<path d="M87.6571 44.0823C87.6082 44.1061 87.5674 44.1547 87.5503 44.2609C87.5424 44.2768 87.5344 44.4237 87.5424 44.6351C87.5424 44.9449 87.5503 44.9449 87.5594 44.9777C87.5912 45.0512 87.6082 45.067 87.6821 45.1077L87.7389 45.1326L88.9909 45.1484C89.6543 45.1484 90.219 45.1563 90.2837 45.1654C90.3496 45.1733 90.6109 45.2219 90.5382 45.4582C90.5053 45.5961 90.4064 45.6696 90.1372 45.9307C90.0145 46.0528 89.9077 46.167 89.8827 46.1908C89.8588 46.2156 89.7191 46.3536 89.5396 46.5333C89.384 46.6882 89.2454 46.8261 89.2204 46.851C89.1954 46.8747 88.9261 47.1438 88.5739 47.4852C87.6082 48.3411 87.6082 48.3569 87.5674 48.4869C87.5503 48.5276 87.5424 48.5445 87.5424 49.155C87.5344 49.5383 87.5424 49.8311 87.5503 49.8797C87.5753 50.0832 87.6162 50.133 87.8287 50.1567C87.9922 50.1646 91.6755 50.1737 91.9617 50.1567C92.0515 50.133 92.1174 50.0832 92.1412 50.0425C92.1662 49.986 92.1912 49.8967 92.1912 49.6027C92.1912 49.155 92.1503 49.1223 92.0435 49.0736C91.9947 49.0409 92.0276 49.0329 90.4882 49.0329C89.2363 49.0329 88.917 49.1223 88.917 48.8046V48.7967C88.917 48.6587 88.9988 48.5932 89.0897 48.5039C89.1636 48.4304 89.5635 48.0313 89.793 47.8029C89.8418 47.7543 90.1201 47.4773 90.4155 47.1924C90.7018 46.9075 91.1347 46.4836 91.3892 46.2563C92.1094 45.6289 92.1174 45.5961 92.1662 45.4503C92.1742 45.4096 92.1821 45.344 92.1821 44.8307C92.1821 44.2689 92.1742 44.2689 92.1583 44.2123C92.1253 44.0981 92.0765 44.0495 91.8879 44.0247C91.8141 44.0247 90.8245 44.0247 89.777 44.0247C87.5912 44.0326 87.7309 44.0416 87.6571 44.0823Z" fill="#DED7C2"/>
<path d="M101.522 50.1488C102.307 50.1488 102.283 50.1409 102.316 50.133C102.357 50.116 102.422 50.0505 102.439 50.0188C102.463 49.9612 102.48 49.8232 102.48 49.5293C102.471 49.2207 102.455 49.2207 102.414 49.163C102.365 49.0986 102.34 49.0737 102.144 49.0499C102.021 49.033 101.906 48.9923 101.841 48.886C101.742 48.7481 101.783 48.6667 101.783 47.1359C101.783 45.621 101.767 45.5148 101.824 45.3847C101.882 45.2378 102.021 45.1733 102.161 45.1564C102.389 45.1326 102.439 45.084 102.48 44.9529C102.488 44.8884 102.496 44.3017 102.48 44.2282C102.455 44.114 102.398 44.0575 102.258 44.0247C102.128 44.0168 100.498 44.0089 100.327 44.0247C100.237 44.0496 100.179 44.0982 100.138 44.1954C100.13 44.2282 100.13 44.261 100.13 44.5708C100.13 44.9777 100.13 44.9698 100.179 45.0343C100.221 45.0919 100.262 45.1247 100.45 45.1485C100.589 45.1654 100.728 45.1971 100.794 45.3282C100.868 45.4661 100.843 45.5645 100.851 47.0625C100.851 48.1206 100.868 48.6667 100.843 48.773C100.81 48.8702 100.753 48.9765 100.638 49.0172C100.58 49.0409 100.516 49.0499 100.434 49.0579C100.278 49.0816 100.286 49.0816 100.237 49.1144C100.188 49.1472 100.147 49.18 100.138 49.5135C100.122 49.9046 100.171 50.0188 100.229 50.0753C100.27 50.116 100.286 50.133 100.531 50.1488C100.646 50.1488 101.096 50.1567 101.522 50.1488Z" fill="#DED7C2"/>
<path d="M110.967 50.1567C111.214 50.1487 111.254 50.1408 111.278 50.1329C111.336 50.116 111.393 50.0594 111.418 50.0097L111.434 49.9611L111.442 48.0799C111.442 46.7119 111.434 46.1828 111.467 46.0607C111.475 46.0121 111.483 45.9714 111.533 45.9217C111.623 45.8244 111.769 45.9137 111.794 45.9386C111.86 46.02 111.933 46.2156 111.991 46.3614C112.187 46.8826 113.316 49.7824 113.365 49.8966C113.439 50.0673 113.48 50.1001 113.578 50.1329C113.603 50.1487 113.652 50.1487 114.167 50.1487C114.757 50.1487 114.781 50.1487 114.822 50.1329C114.863 50.116 114.936 50.0504 114.961 50.0018C114.969 49.9532 114.977 49.579 114.977 47.1766C114.977 45.3281 114.977 44.383 114.969 44.2858C114.944 44.1388 114.911 44.106 114.765 44.0732C114.699 44.0574 114.282 44.0574 114.192 44.0653C114.078 44.0902 114.02 44.1388 113.987 44.2123C113.979 44.253 113.971 44.5628 113.971 46.15C113.963 48.0561 114.045 48.2517 113.823 48.3489C113.603 48.4382 113.529 48.1375 113.488 48.0312C113.439 47.925 113.104 47.0872 112.735 46.1342C112.375 45.197 112.057 44.3751 112.024 44.3174C111.95 44.1467 111.892 44.106 111.745 44.0823C111.655 44.0732 110.772 44.0732 110.673 44.0823C110.526 44.0981 110.476 44.1467 110.452 44.236C110.443 44.236 110.435 44.3581 110.435 47.1279V49.9611L110.452 50.0097C110.468 50.0504 110.534 50.116 110.558 50.1239C110.567 50.1329 110.608 50.1408 110.64 50.1487C110.657 50.1487 110.82 50.1567 110.967 50.1567Z" fill="#DED7C2"/>
<path d="M123.466 50.1488C123.752 50.1488 123.76 50.1409 123.785 50.133C123.875 50.1002 123.908 50.0595 123.932 49.9611C123.941 49.9046 123.941 49.5711 123.949 48.9436C123.957 47.9985 123.932 47.9578 123.997 47.8278C124.03 47.7622 124.079 47.7215 124.128 47.6899C124.243 47.6322 124.276 47.6492 125.193 47.6492C125.839 47.6571 126.125 47.6492 126.223 47.6729C126.338 47.7136 126.428 47.8278 126.445 47.9578C126.453 48.0313 126.453 48.4632 126.461 49.0171C126.468 49.986 126.478 49.986 126.486 50.0097C126.501 50.0504 126.542 50.1002 126.575 50.116C126.624 50.1409 126.698 50.1567 127.025 50.1567C127.336 50.1488 127.321 50.1488 127.344 50.133C127.418 50.1002 127.459 50.0504 127.484 49.9204C127.492 49.8232 127.5 48.756 127.5 47.0375C127.5 44.6272 127.5 44.253 127.492 44.2044C127.451 44.114 127.41 44.0733 127.336 44.0495C127.28 44.0416 126.78 44.0247 126.69 44.0326C126.559 44.0574 126.501 44.1061 126.478 44.1875L126.453 44.2361V45.2219C126.445 46.1749 126.461 46.2315 126.404 46.3615C126.314 46.574 126.24 46.5412 125.217 46.5491C124.276 46.5491 124.251 46.574 124.137 46.5084C124.079 46.4757 124.03 46.4271 123.997 46.3615C123.941 46.2315 123.957 46.1829 123.949 45.2219V44.2361L123.924 44.1875C123.908 44.1388 123.85 44.0823 123.801 44.0654C123.768 44.0495 123.744 44.0495 123.425 44.0495C123.065 44.0495 123.098 44.0495 123.065 44.0574C122.975 44.1061 122.95 44.123 122.925 44.2361C122.909 44.5628 122.909 49.6604 122.925 49.9204C122.95 50.0753 122.983 50.1081 123.122 50.1409C123.147 50.1488 123.236 50.1567 123.466 50.1488Z" fill="#DED7C2"/>
<path d="M135.694 43.9682C135.571 43.984 135.497 44.0416 135.456 44.1309L135.439 44.1796V45.9308C135.431 46.9075 135.439 48.219 135.439 48.8374L135.456 49.9374L135.472 49.9939C135.513 50.0832 135.571 50.133 135.694 50.1488C135.792 50.1646 136.045 50.1646 136.218 50.1488C136.405 50.133 136.454 50.0832 136.487 49.969C136.504 49.9204 136.512 49.9046 136.52 49.3258C136.52 48.9764 136.512 48.7402 136.545 48.6418C136.586 48.496 136.708 48.4462 136.814 48.4304C136.888 48.4146 137.306 48.4146 137.813 48.4146C138.737 48.4055 138.811 48.3818 138.926 48.5276C139.024 48.6588 139.008 48.7639 139.008 49.2772C139.008 49.5541 139.016 49.8469 139.016 49.8797C139.032 49.9939 139.082 50.0595 139.098 50.0674C139.171 50.116 139.187 50.1239 139.442 50.133C139.966 50.1488 139.997 50.0832 140.03 49.9046C140.038 49.7983 140.038 48.6746 140.047 47.0048C140.047 44.5538 140.038 44.1954 140.03 44.1547C140.03 44.1468 139.997 44.0902 139.981 44.0733C139.933 44.0247 139.892 43.9919 139.711 43.984C139.507 43.9761 137.404 43.9591 136.356 43.9591C135.996 43.9591 135.751 43.9682 135.694 43.9682ZM138.819 45.1326C139.016 45.2377 138.991 45.3689 139 46.1987C139 46.9562 139.016 46.9969 138.959 47.119C138.934 47.1845 138.885 47.2331 138.827 47.2659C138.696 47.3394 138.615 47.3225 137.6 47.3066C136.88 47.2987 136.814 47.3145 136.708 47.2659C136.594 47.2094 136.545 47.0873 136.528 46.9562C136.504 46.7527 136.495 45.474 136.561 45.3112C136.602 45.1891 136.708 45.1326 136.814 45.1156C136.888 45.0998 137.297 45.0998 137.805 45.0998C138.017 45.0998 138.181 45.0998 138.312 45.0998C138.681 45.0998 138.737 45.0919 138.819 45.1326Z" fill="#DED7C2"/>
<path d="M30.4141 40.5126H52.4724H30.4141Z" fill="#DED7C2"/>
<path d="M30.4141 40.5126H52.4724" stroke="#DED7C2" stroke-width="3" stroke-linecap="round"/>
</svg>
