<svg width="134" height="48" viewBox="0 0 134 48" fill="none" xmlns="http://www.w3.org/2000/svg">
<path d="M18.4508 33.0641C19.4193 32.9321 19.6389 32.7136 19.815 31.7941C19.8596 31.4004 19.8596 28.9481 19.815 28.5544C19.727 28.0297 19.5954 27.8101 19.3748 27.5916C18.9791 27.2855 19.815 27.2855 12.5558 27.1979C6.92499 27.1979 6.79346 27.2855 6.13363 26.6722C5.38575 25.8836 5.64881 25.6651 5.64881 13.2318C5.64881 2.94464 5.60533 1.2366 5.56076 1.0181C5.42923 0.536731 5.2977 0.361493 4.98898 0.229523C4.63787 0.0542841 4.37372 -0.0322533 2.56925 0.0110155C1.07349 0.0110155 1.07349 0.0542843 0.853911 0.141904C0.413663 0.317142 0.194082 0.536732 0.0625516 1.41184C0.0179834 1.84994 -0.025498 6.27093 0.0179833 14.545C0.0179833 26.8474 0.0625516 31.5756 0.149514 32.2322C0.325614 32.5827 0.634331 32.9321 1.11806 33.0641C2.39315 33.1517 17.4398 33.1949 18.4508 33.0641Z" fill="white"/>
<path d="M39.3466 0.624363L28.3915 0.667632L28.1284 0.755251C27.7762 0.886139 27.6001 1.06138 27.5121 1.41186L27.3805 1.67471L27.336 16.0778C27.2925 24.089 27.2925 31.1375 27.336 31.5313C27.3805 32.1879 27.424 32.4075 27.4675 32.4951C27.6436 32.8888 27.8197 33.0641 28.4795 33.195C28.7437 33.2393 31.383 33.2826 39.8303 33.2393C49.069 33.2393 50.8289 33.195 51.0485 33.195V33.1517C51.3561 33.0641 51.6203 32.7569 51.7529 32.4075L51.8844 32.057L51.8398 17.0405C51.8398 8.46034 51.7964 2.46221 51.7529 1.67471C51.6203 1.01811 51.4007 0.79852 50.7408 0.667632C50.4321 0.667632 48.4092 0.624363 44.3176 0.624363C42.9533 0.624363 41.2815 0.624363 39.3466 0.624363ZM45.3731 6.5338C45.6372 6.70904 45.8133 6.83993 46.0329 7.14713C46.5166 7.89136 46.2971 7.97898 46.2971 16.8653C46.2971 25.3146 46.4732 25.7527 46.0775 26.4969C45.9449 26.8031 45.8133 26.9783 45.5492 27.1979C44.8894 27.6349 44.5372 27.4597 39.6542 27.4597C34.1995 27.504 33.9788 27.5916 33.2755 26.8907C32.9668 26.5846 32.9233 26.2341 32.8787 25.928C32.7472 25.3146 32.7907 22.8191 32.7907 16.6901C32.7907 8.24184 32.6592 8.15422 33.0548 7.32237C33.1875 7.05951 33.4516 6.70904 33.7592 6.5338C34.3745 6.18332 34.5071 6.31529 39.5662 6.31529C44.5817 6.31529 44.7578 6.18332 45.3731 6.5338Z" fill="white"/>
<path d="M60.4165 0.404856C59.8012 0.580095 59.6251 0.712065 59.4056 1.28105C59.361 1.63045 59.3175 3.86312 59.361 16.2531C59.361 24.7025 59.4056 31.2252 59.4491 31.7509C59.4925 32.4508 59.6251 32.6261 59.8447 32.8013C60.1534 33.0642 59.9773 33.0642 62.1329 33.1518C63.1884 33.195 64.1559 33.2394 64.42 33.2394C64.7288 33.2394 68.8638 33.2827 73.6153 33.2394H82.8539L83.117 33.1518C83.3812 33.0642 83.7334 32.7137 83.7779 32.4508C83.7779 32.4508 83.8649 31.619 83.9529 24.4396C83.9529 20.1495 83.9975 16.2088 83.9529 15.9027C83.9095 14.8956 83.8214 14.6771 83.6899 14.5018C83.4257 14.1081 83.2931 13.9328 81.7093 13.8885C80.6538 13.8009 79.9505 13.7133 79.4222 13.0134C78.9385 12.3568 79.1145 12.1372 79.07 6.79674C79.07 1.28105 79.0265 1.32432 78.9385 1.14908C78.8504 0.930573 78.5417 0.580095 78.2786 0.449207C78.146 0.404856 76.9144 0.361588 69.6998 0.361588C67.8083 0.361588 66.3561 0.361588 65.1679 0.361588C61.3405 0.361588 60.5491 0.404856 60.4165 0.404856ZM69.8313 6.27103C73.4826 6.27103 74.0544 6.18341 74.5827 7.23484C74.8469 7.75947 74.8023 8.10995 74.8023 10.0798C74.8023 12.1372 74.8469 12.4877 74.4947 13.0134C74.3186 13.2762 74.1425 13.4948 73.8794 13.67C73.3065 14.0205 72.9989 13.8885 70.1835 13.8885C68.4236 13.8885 66.9278 13.8885 66.5756 13.8452C65.9604 13.7576 65.4321 13.4071 65.1244 12.7949C64.8603 12.2248 64.9038 11.8754 64.9483 10.0365C64.9483 7.89144 64.9483 7.14722 65.6962 6.57823L66.1365 6.27103H69.8313ZM73.175 19.7114C77.0459 19.7547 77.6188 19.6681 78.1025 20.6741C78.4102 21.2431 78.3221 21.6379 78.3667 23.5634C78.3667 25.8404 78.3667 26.6723 77.5307 27.198C76.9144 27.5917 76.7383 27.4598 71.6793 27.4598C66.7083 27.5041 66.4876 27.5917 65.8723 27.2856C65.5636 27.1104 65.256 26.8032 65.0799 26.4538C64.8603 25.928 64.9038 25.5776 64.9038 23.6078C64.9038 21.6379 64.8603 21.2875 65.1244 20.7185C65.5636 19.7547 66.3115 19.6681 67.8953 19.6681C68.0714 19.6681 68.3801 19.6681 68.7758 19.6681C69.8759 19.6681 71.5912 19.6681 73.175 19.7114Z" fill="white"/>
<path d="M103.441 0.624363L92.4855 0.667632L92.2224 0.755251C91.8702 0.886139 91.6941 1.06138 91.606 1.41186L91.4745 1.67471L91.4299 16.0778C91.3865 24.089 91.3865 31.1375 91.4299 31.5313C91.4745 32.1879 91.518 32.4075 91.5615 32.4951C91.7376 32.8888 91.9137 33.0641 92.5735 33.195C92.8377 33.2393 95.477 33.2826 103.924 33.2393C113.163 33.2393 114.923 33.195 115.142 33.195V33.1517C115.45 33.0641 115.714 32.7569 115.847 32.4075L115.978 32.057L115.934 17.0405C115.934 8.46034 115.89 2.46221 115.847 1.67471C115.714 1.01811 115.495 0.79852 114.835 0.667632C114.526 0.667632 112.503 0.624363 108.412 0.624363C107.047 0.624363 105.375 0.624363 103.441 0.624363ZM109.467 6.5338C109.731 6.70904 109.907 6.83993 110.127 7.14713C110.611 7.89136 110.391 7.97898 110.391 16.8653C110.391 25.3146 110.567 25.7527 110.171 26.4969C110.039 26.8031 109.907 26.9783 109.643 27.1979C108.983 27.6349 108.631 27.4597 103.748 27.4597C98.2935 27.504 98.0728 27.5916 97.3695 26.8907C97.0608 26.5846 97.0173 26.2341 96.9727 25.928C96.8412 25.3146 96.8847 22.8191 96.8847 16.6901C96.8847 8.24184 96.7531 8.15422 97.1488 7.32237C97.2814 7.05951 97.5456 6.70904 97.8532 6.5338C98.4685 6.18332 98.6011 6.31529 103.66 6.31529C108.676 6.31529 108.852 6.18332 109.467 6.5338Z" fill="white"/>
<path d="M63.9796 47.9908C64.0817 47.9681 64.1372 47.9291 64.1676 47.8199C64.1839 47.7571 64.1915 47.7571 64.1839 47.4456C64.1763 47.0486 64.1763 47.0875 64.1133 47.0324C64.035 46.9545 64.1676 46.9545 62.8686 46.9545C61.9359 46.9469 61.9055 46.9707 61.8033 46.908C61.7098 46.8528 61.662 46.736 61.6544 46.6278C61.6468 46.5499 61.6468 45.8641 61.6468 45.0225C61.6544 43.5341 61.6305 43.5179 61.6935 43.3859C61.7881 43.1912 61.8425 43.215 62.8371 43.215C63.4632 43.215 63.9013 43.215 63.9491 43.2063C64.097 43.1836 64.1285 43.1598 64.1763 43.0592L64.1915 43.0116L64.1991 42.7001C64.1991 42.381 64.1991 42.3734 64.1839 42.3182C64.16 42.2479 64.1209 42.2014 64.0665 42.1787C64.0426 42.1625 64.0187 42.1549 63.91 42.1473C63.8469 42.1473 63.1654 42.1398 62.3197 42.1473L60.8554 42.1549L60.8087 42.1787C60.7152 42.2176 60.6837 42.2566 60.6598 42.3734C60.6522 42.4589 60.6522 43.3232 60.6598 45.1231C60.6674 47.3125 60.6761 47.7647 60.6837 47.835C60.7152 47.9291 60.7543 47.9681 60.9109 47.9908C61.0674 47.9984 63.7687 47.9984 63.9796 47.9908Z" fill="white"/>
<path d="M73.9342 42.1786L71.984 42.1862L71.9373 42.2013C71.8743 42.2251 71.8427 42.2565 71.8275 42.3181L71.8036 42.3647L71.796 44.9283C71.7884 46.354 71.7884 47.6088 71.796 47.6792C71.8036 47.796 71.8123 47.8349 71.8199 47.8501C71.8514 47.9204 71.883 47.9517 72.0004 47.9755C72.0471 47.9831 72.5167 47.9907 74.0201 47.9831C75.6647 47.9831 75.9778 47.9755 76.0169 47.9755V47.968C76.0713 47.9517 76.118 47.8977 76.1419 47.8349L76.1659 47.7722L76.1572 45.1003C76.1572 43.5729 76.1496 42.5053 76.1419 42.3647C76.118 42.2478 76.0789 42.2089 75.9615 42.1862C75.9071 42.1862 75.5473 42.1786 74.819 42.1786C74.5755 42.1786 74.2788 42.1786 73.9342 42.1786ZM75.0071 43.23C75.0538 43.2614 75.0853 43.2841 75.1245 43.3393C75.2104 43.4713 75.1712 43.4875 75.1712 45.069C75.1712 46.5726 75.2027 46.6504 75.1321 46.7835C75.1082 46.8376 75.0853 46.8689 75.0375 46.9079C74.9201 46.9858 74.8582 46.9544 73.9885 46.9544C73.0178 46.962 72.9787 46.9782 72.8537 46.8527C72.7982 46.7986 72.7906 46.7359 72.783 46.6818C72.7591 46.5726 72.7667 46.129 72.7667 45.0376C72.7667 43.534 72.7439 43.5178 72.8145 43.3707C72.8374 43.3231 72.8852 43.2614 72.9395 43.23C73.0493 43.1673 73.0722 43.1911 73.9733 43.1911C74.8658 43.1911 74.8973 43.1673 75.0071 43.23Z" fill="white"/>
<path d="M83.8719 42.1788C83.8251 42.2015 83.786 42.248 83.7697 42.3497C83.7621 42.3649 83.7545 42.5055 83.7621 42.7078C83.7621 43.0041 83.7697 43.0041 83.7784 43.0355C83.8088 43.1058 83.8251 43.121 83.8958 43.1599L83.9501 43.1837L85.148 43.1989C85.7829 43.1989 86.3231 43.2064 86.3851 43.2151C86.4481 43.2227 86.6981 43.2692 86.6286 43.4952C86.597 43.6272 86.5025 43.6975 86.2448 43.9474C86.1274 44.0642 86.0253 44.1735 86.0013 44.1962C85.9785 44.22 85.8448 44.352 85.6731 44.524C85.5241 44.6722 85.3915 44.8041 85.3676 44.8279C85.3437 44.8506 85.0861 45.1081 84.7491 45.4348C83.8251 46.2536 83.8251 46.2688 83.786 46.3932C83.7697 46.4321 83.7621 46.4483 83.7621 47.0325C83.7545 47.3992 83.7621 47.6793 83.7697 47.7259C83.7936 47.9206 83.8327 47.9682 84.036 47.9909C84.1925 47.9984 87.7167 48.0071 87.9906 47.9909C88.0765 47.9682 88.1395 47.9206 88.1624 47.8816C88.1863 47.8275 88.2102 47.7421 88.2102 47.4608C88.2102 47.0325 88.1711 47.0011 88.0689 46.9546C88.0221 46.9232 88.0537 46.9156 86.5807 46.9156C85.3828 46.9156 85.0774 47.0011 85.0774 46.6971V46.6896C85.0774 46.5576 85.1556 46.4949 85.2426 46.4094C85.3133 46.3391 85.6959 45.9572 85.9155 45.7387C85.9622 45.6922 86.2285 45.4272 86.5112 45.1546C86.7851 44.882 87.1993 44.4764 87.4428 44.2589C88.1319 43.6586 88.1395 43.6272 88.1863 43.4877C88.1939 43.4487 88.2015 43.386 88.2015 42.8949C88.2015 42.3573 88.1939 42.3573 88.1787 42.3032C88.1472 42.1939 88.1004 42.1474 87.92 42.1236C87.8493 42.1236 86.9025 42.1236 85.9003 42.1236C83.8088 42.1312 83.9425 42.1399 83.8719 42.1788Z" fill="white"/>
<path d="M97.138 47.9833C97.8892 47.9833 97.8663 47.9758 97.8978 47.9682C97.937 47.952 97.9989 47.8892 98.0152 47.8589C98.0381 47.8038 98.0544 47.6718 98.0544 47.3905C98.0457 47.0952 98.0305 47.0952 97.9913 47.0401C97.9446 46.9784 97.9207 46.9546 97.7326 46.9319C97.6152 46.9157 97.5054 46.8767 97.4435 46.775C97.3489 46.6431 97.388 46.5652 97.388 45.1005C97.388 43.651 97.3728 43.5494 97.4272 43.425C97.4826 43.2843 97.6152 43.2227 97.7489 43.2065C97.9674 43.1837 98.0152 43.1372 98.0544 43.0117C98.062 42.9501 98.0696 42.3887 98.0544 42.3184C98.0305 42.2091 97.9761 42.155 97.8424 42.1236C97.7174 42.1161 96.1586 42.1085 95.9945 42.1236C95.9086 42.1474 95.8531 42.194 95.814 42.287C95.8064 42.3184 95.8064 42.3497 95.8064 42.6461C95.8064 43.0355 95.8064 43.028 95.8531 43.0896C95.8934 43.1448 95.9325 43.1762 96.1119 43.1989C96.2456 43.2151 96.3782 43.2454 96.4412 43.3709C96.5119 43.5028 96.488 43.597 96.4956 45.0302C96.4956 46.0427 96.5119 46.5652 96.488 46.6669C96.4564 46.7599 96.4021 46.8616 96.2923 46.9005C96.2369 46.9232 96.1749 46.9319 96.0966 46.9395C95.9477 46.9622 95.9553 46.9622 95.9086 46.9936C95.8618 47.0249 95.8227 47.0563 95.814 47.3754C95.7988 47.7497 95.8455 47.8589 95.901 47.913C95.9401 47.952 95.9553 47.9682 96.1901 47.9833C96.2999 47.9833 96.7304 47.9909 97.138 47.9833Z" fill="white"/>
<path d="M106.175 47.9908C106.411 47.9832 106.45 47.9757 106.473 47.9681C106.529 47.9519 106.583 47.8978 106.607 47.8502L106.622 47.8037L106.63 46.0037C106.63 44.6948 106.622 44.1886 106.654 44.0717C106.661 44.0252 106.669 43.9863 106.717 43.9387C106.803 43.8457 106.943 43.9311 106.967 43.9549C107.03 44.0328 107.099 44.2199 107.155 44.3595C107.343 44.8582 108.423 47.6328 108.47 47.742C108.541 47.9054 108.58 47.9367 108.673 47.9681C108.697 47.9832 108.744 47.9832 109.238 47.9832C109.802 47.9832 109.825 47.9832 109.864 47.9681C109.903 47.9519 109.973 47.8891 109.997 47.8426C110.005 47.7961 110.013 47.4381 110.013 45.1394C110.013 43.3708 110.013 42.4665 110.005 42.3734C109.981 42.2328 109.95 42.2014 109.809 42.1701C109.746 42.1549 109.347 42.1549 109.261 42.1625C109.152 42.1863 109.096 42.2328 109.065 42.3031C109.057 42.3421 109.049 42.6385 109.049 44.1572C109.042 45.981 109.12 46.1681 108.908 46.2611C108.697 46.3466 108.627 46.0589 108.587 45.9572C108.541 45.8555 108.22 45.0539 107.867 44.1421C107.522 43.2453 107.218 42.4589 107.186 42.4037C107.116 42.2404 107.06 42.2014 106.92 42.1787C106.834 42.1701 105.988 42.1701 105.894 42.1787C105.754 42.1939 105.706 42.2404 105.683 42.3258C105.674 42.3258 105.667 42.4427 105.667 45.0929V47.8037L105.683 47.8502C105.698 47.8891 105.761 47.9519 105.784 47.9594C105.793 47.9681 105.832 47.9757 105.862 47.9832C105.879 47.9832 106.035 47.9908 106.175 47.9908Z" fill="white"/>
<path d="M118.134 47.9833C118.408 47.9833 118.416 47.9757 118.44 47.9681C118.526 47.9368 118.557 47.8978 118.58 47.8037C118.589 47.7496 118.589 47.4305 118.596 46.8302C118.604 45.9258 118.58 45.8869 118.643 45.7625C118.675 45.6998 118.721 45.6608 118.768 45.6305C118.878 45.5754 118.909 45.5916 119.787 45.5916C120.405 45.5992 120.679 45.5916 120.773 45.6143C120.882 45.6532 120.968 45.7625 120.985 45.8869C120.992 45.9572 120.992 46.3704 121 46.9005C121.007 47.8275 121.016 47.8275 121.024 47.8502C121.039 47.8892 121.078 47.9368 121.11 47.9519C121.156 47.9757 121.227 47.9908 121.54 47.9908C121.838 47.9833 121.823 47.9833 121.845 47.9681C121.916 47.9368 121.955 47.8892 121.979 47.7648C121.987 47.6717 121.994 46.6506 121.994 45.0064C121.994 42.7001 121.994 42.3421 121.987 42.2956C121.948 42.209 121.908 42.1701 121.838 42.1474C121.783 42.1398 121.305 42.1236 121.219 42.1312C121.094 42.155 121.039 42.2015 121.016 42.2794L120.992 42.3259V43.2691C120.985 44.181 121 44.2351 120.945 44.3595C120.86 44.5629 120.789 44.5315 119.809 44.5391C118.909 44.5391 118.885 44.5629 118.777 44.5001C118.721 44.4688 118.675 44.4222 118.643 44.3595C118.589 44.2351 118.604 44.1886 118.596 43.2691V42.3259L118.572 42.2794C118.557 42.2328 118.502 42.1788 118.455 42.1625C118.423 42.1474 118.401 42.1474 118.095 42.1474C117.751 42.1474 117.782 42.1474 117.751 42.155C117.665 42.2015 117.641 42.2177 117.617 42.3259C117.602 42.6385 117.602 47.516 117.617 47.7648C117.641 47.913 117.672 47.9443 117.805 47.9757C117.829 47.9833 117.915 47.9908 118.134 47.9833Z" fill="white"/>
<path d="M129.834 42.0696C129.717 42.0847 129.646 42.1399 129.607 42.2253L129.591 42.2718V43.9474C129.583 44.882 129.591 46.1368 129.591 46.7285L129.607 47.781L129.622 47.8351C129.662 47.9206 129.717 47.9682 129.834 47.9833C129.928 47.9985 130.17 47.9985 130.336 47.9833C130.515 47.9682 130.562 47.9206 130.593 47.8113C130.609 47.7648 130.617 47.7497 130.625 47.1958C130.625 46.8616 130.617 46.6355 130.649 46.5414C130.688 46.4018 130.805 46.3542 130.906 46.3391C130.977 46.324 131.377 46.324 131.862 46.324C132.747 46.3153 132.817 46.2926 132.927 46.4321C133.02 46.5576 133.005 46.6582 133.005 47.1493C133.005 47.4143 133.013 47.6945 133.013 47.7259C133.028 47.8351 133.076 47.8979 133.091 47.9054C133.162 47.9519 133.177 47.9595 133.421 47.9682C133.922 47.9833 133.952 47.9206 133.984 47.7497C133.991 47.648 133.991 46.5728 134 44.9751C134 42.6299 133.991 42.287 133.984 42.248C133.984 42.2405 133.952 42.1864 133.937 42.1702C133.89 42.1236 133.851 42.0923 133.678 42.0847C133.482 42.0771 131.47 42.0609 130.468 42.0609C130.124 42.0609 129.889 42.0696 129.834 42.0696ZM132.825 43.1837C133.013 43.2843 132.989 43.4098 132.998 44.2038C132.998 44.9285 133.013 44.9675 132.959 45.0843C132.935 45.147 132.888 45.1936 132.832 45.2249C132.707 45.2952 132.629 45.279 131.658 45.2639C130.969 45.2563 130.906 45.2714 130.805 45.2249C130.695 45.1708 130.649 45.054 130.632 44.9285C130.609 44.7338 130.601 43.5104 130.664 43.3546C130.703 43.2378 130.805 43.1837 130.906 43.1675C130.977 43.1524 131.368 43.1524 131.854 43.1524C132.057 43.1524 132.214 43.1524 132.34 43.1524C132.692 43.1524 132.747 43.1448 132.825 43.1837Z" fill="white"/>
<path d="M29.1006 38.7633H50.2064H29.1006Z" fill="white"/>
<path d="M29.1006 38.7633H50.2064" stroke="white" stroke-width="3" stroke-linecap="round"/>
</svg>
